<?xml version="1.0" encoding="iso-8859-1"?>
<!-- Generator: Adobe Illustrator 16.0.0, SVG Export Plug-In . SVG Version: 6.00 Build 0)  -->
<!DOCTYPE svg PUBLIC "-//W3C//DTD SVG 1.1//EN" "http://www.w3.org/Graphics/SVG/1.1/DTD/svg11.dtd">
<svg version="1.1" id="Capa_1" xmlns="http://www.w3.org/2000/svg" xmlns:xlink="http://www.w3.org/1999/xlink" x="0px" y="0px"
	 width="31.369px" height="31.369px" viewBox="0 0 31.369 31.369" style="enable-background:new 0 0 31.369 31.369;"
	 xml:space="preserve">
<g>
	<g>
		<path d="M30.736,19.602c-0.044-0.217-0.125-0.401-0.193-0.6c-0.555-1.979-2.354-3.442-4.515-3.442
			c-2.071,0-3.812,1.348-4.44,3.206c-0.019,0.035-0.043,0.081-0.061,0.115c-1.64,3.365-5.718,10.146-13.145,5.164
			c-0.012-0.83-1.626-7.752-5.228-5.812c2.231,2.056,1.664,5.244,1.664,5.244s-3,1.5-4.307,1.334
			c-0.235,1.75,2.761,2.996,6.696,1.997c8.116,5.907,14.526,5.298,18.111,2.544C30.028,25.733,31.32,22.436,30.736,19.602z"/>
		<path d="M0.824,12.366c0.555,1.979,2.355,3.443,4.516,3.443c2.071,0,3.811-1.348,4.44-3.205c0.019-0.037,0.044-0.082,0.06-0.117
			c1.641-3.365,5.719-10.146,13.145-5.164c0.014,0.83,1.626,7.752,5.229,5.813c-2.23-2.057-1.664-5.244-1.664-5.244
			s3-1.5,4.309-1.334c0.234-1.75-2.761-2.996-6.696-1.998c-8.12-5.908-14.53-5.296-18.115-2.542c-4.708,3.617-6,6.916-5.416,9.75
			C0.675,11.982,0.755,12.17,0.824,12.366z"/>
	</g>
</g>
<g>
</g>
<g>
</g>
<g>
</g>
<g>
</g>
<g>
</g>
<g>
</g>
<g>
</g>
<g>
</g>
<g>
</g>
<g>
</g>
<g>
</g>
<g>
</g>
<g>
</g>
<g>
</g>
<g>
</g>
</svg>
